<svg width="70" height="13" viewBox="0 0 70 13" fill="none" xmlns="http://www.w3.org/2000/svg">
<path d="M0.758523 10V1.27273H4.25284C4.89489 1.27273 5.4304 1.3679 5.85938 1.55824C6.28835 1.74858 6.6108 2.01278 6.8267 2.35085C7.04261 2.68608 7.15057 3.07244 7.15057 3.50994C7.15057 3.85085 7.08239 4.15057 6.94602 4.40909C6.80966 4.66477 6.62216 4.875 6.38352 5.03977C6.14773 5.2017 5.87784 5.31676 5.57386 5.38494V5.47017C5.90625 5.48437 6.21733 5.57812 6.5071 5.75142C6.79972 5.92472 7.03693 6.16761 7.21875 6.48011C7.40057 6.78977 7.49148 7.15909 7.49148 7.58807C7.49148 8.05114 7.37642 8.46449 7.14631 8.82812C6.91903 9.18892 6.58239 9.47443 6.13636 9.68466C5.69034 9.89489 5.14063 10 4.48722 10H0.758523ZM2.60369 8.49148H4.10795C4.62216 8.49148 4.99716 8.39347 5.23295 8.19744C5.46875 7.99858 5.58665 7.73437 5.58665 7.40483C5.58665 7.16335 5.52841 6.95028 5.41193 6.76562C5.29545 6.58097 5.12926 6.43608 4.91335 6.33097C4.70028 6.22585 4.44602 6.1733 4.15057 6.1733H2.60369V8.49148ZM2.60369 4.92472H3.97159C4.22443 4.92472 4.44886 4.88068 4.64489 4.79261C4.84375 4.7017 5 4.57386 5.11364 4.40909C5.23011 4.24432 5.28835 4.04688 5.28835 3.81676C5.28835 3.50142 5.17614 3.24716 4.9517 3.05398C4.73011 2.8608 4.41477 2.7642 4.00568 2.7642H2.60369V4.92472ZM8.65803 10V3.45455H10.4734V10H8.65803ZM9.56996 2.6108C9.30007 2.6108 9.06854 2.52131 8.87536 2.34233C8.68501 2.16051 8.58984 1.94318 8.58984 1.69034C8.58984 1.44034 8.68501 1.22585 8.87536 1.04688C9.06854 0.865057 9.30007 0.774147 9.56996 0.774147C9.83984 0.774147 10.07 0.865057 10.2603 1.04688C10.4535 1.22585 10.5501 1.44034 10.5501 1.69034C10.5501 1.94318 10.4535 2.16051 10.2603 2.34233C10.07 2.52131 9.83984 2.6108 9.56996 2.6108ZM13.7429 6.21591V10H11.9276V3.45455H13.6577V4.60938H13.7344C13.8793 4.22869 14.1222 3.92756 14.4631 3.70597C14.804 3.48153 15.2173 3.36932 15.7031 3.36932C16.1577 3.36932 16.554 3.46875 16.892 3.66761C17.2301 3.86648 17.4929 4.15057 17.6804 4.51989C17.8679 4.88636 17.9616 5.32386 17.9616 5.83239V10H16.1463V6.15625C16.1491 5.75568 16.0469 5.44318 15.8395 5.21875C15.6321 4.99148 15.3466 4.87784 14.983 4.87784C14.7386 4.87784 14.5227 4.9304 14.3352 5.03551C14.1506 5.14062 14.0057 5.29403 13.9006 5.49574C13.7983 5.6946 13.7457 5.93466 13.7429 6.21591ZM21.2589 10.1236C20.8413 10.1236 20.4691 10.0511 20.1424 9.90625C19.8157 9.75852 19.5572 9.54119 19.3668 9.25426C19.1793 8.96449 19.0856 8.60369 19.0856 8.17188C19.0856 7.80824 19.1523 7.50284 19.2859 7.25568C19.4194 7.00852 19.6012 6.80966 19.8313 6.65909C20.0614 6.50852 20.3228 6.39489 20.6154 6.31818C20.9109 6.24148 21.2205 6.1875 21.5444 6.15625C21.9251 6.11648 22.2319 6.07955 22.4648 6.04545C22.6978 6.00852 22.8668 5.95455 22.9719 5.88352C23.0771 5.8125 23.1296 5.70739 23.1296 5.56818V5.54261C23.1296 5.27273 23.0444 5.06392 22.8739 4.91619C22.7063 4.76847 22.4677 4.6946 22.158 4.6946C21.8313 4.6946 21.5714 4.76705 21.3782 4.91193C21.185 5.05398 21.0572 5.23295 20.9947 5.44886L19.3157 5.3125C19.4009 4.91477 19.5685 4.57102 19.8185 4.28125C20.0685 3.98864 20.391 3.7642 20.7859 3.60795C21.1836 3.44886 21.6438 3.36932 22.1665 3.36932C22.5302 3.36932 22.8782 3.41193 23.2106 3.49716C23.5458 3.58239 23.8427 3.71449 24.1012 3.89347C24.3626 4.07244 24.5685 4.30256 24.7191 4.58381C24.8697 4.86222 24.945 5.19602 24.945 5.58523V10H23.2234V9.09233H23.1722C23.0671 9.29688 22.9265 9.47727 22.7504 9.63352C22.5742 9.78693 22.3626 9.90767 22.1154 9.99574C21.8683 10.081 21.5827 10.1236 21.2589 10.1236ZM21.7788 8.87074C22.0458 8.87074 22.2816 8.81818 22.4862 8.71307C22.6907 8.60511 22.8512 8.46023 22.9677 8.27841C23.0842 8.09659 23.1424 7.89062 23.1424 7.66051V6.96591C23.0856 7.00284 23.0075 7.03693 22.908 7.06818C22.8114 7.09659 22.7021 7.12358 22.5799 7.14915C22.4577 7.17187 22.3356 7.19318 22.2134 7.21307C22.0913 7.23011 21.9805 7.24574 21.881 7.25994C21.668 7.29119 21.4819 7.34091 21.3228 7.40909C21.1637 7.47727 21.0401 7.5696 20.9521 7.68608C20.864 7.79972 20.82 7.94176 20.82 8.11222C20.82 8.35938 20.9094 8.5483 21.0884 8.67898C21.2702 8.80682 21.5004 8.87074 21.7788 8.87074ZM28.1687 6.21591V10H26.3533V3.45455H28.0835V4.60938H28.1602C28.305 4.22869 28.5479 3.92756 28.8888 3.70597C29.2298 3.48153 29.6431 3.36932 30.1289 3.36932C30.5835 3.36932 30.9798 3.46875 31.3178 3.66761C31.6559 3.86648 31.9187 4.15057 32.1062 4.51989C32.2937 4.88636 32.3874 5.32386 32.3874 5.83239V10H30.5721V6.15625C30.5749 5.75568 30.4727 5.44318 30.2653 5.21875C30.0579 4.99148 29.7724 4.87784 29.4087 4.87784C29.1644 4.87784 28.9485 4.9304 28.761 5.03551C28.5763 5.14062 28.4315 5.29403 28.3263 5.49574C28.2241 5.6946 28.1715 5.93466 28.1687 6.21591ZM33.8182 10V3.45455H35.5781V4.59659H35.6463C35.7656 4.19034 35.9659 3.88352 36.2472 3.67614C36.5284 3.46591 36.8523 3.3608 37.2188 3.3608C37.3097 3.3608 37.4077 3.36648 37.5128 3.37784C37.6179 3.3892 37.7102 3.40483 37.7898 3.42472V5.03551C37.7045 5.00994 37.5866 4.98722 37.4361 4.96733C37.2855 4.94744 37.1477 4.9375 37.0227 4.9375C36.7557 4.9375 36.517 4.99574 36.3068 5.11222C36.0994 5.22585 35.9347 5.38494 35.8125 5.58949C35.6932 5.79403 35.6335 6.02983 35.6335 6.29688V10H33.8182ZM40.0483 12.4545C39.8182 12.4545 39.6023 12.4361 39.4006 12.3991C39.2017 12.3651 39.0369 12.321 38.9062 12.267L39.3153 10.9119C39.5284 10.9773 39.7202 11.0128 39.8906 11.0185C40.0639 11.0241 40.2131 10.9844 40.3381 10.8991C40.4659 10.8139 40.5696 10.669 40.6491 10.4645L40.7557 10.1875L38.4077 3.45455H40.3168L41.6719 8.26136H41.7401L43.108 3.45455H45.0298L42.4858 10.7074C42.3636 11.0597 42.1974 11.3665 41.9872 11.6278C41.7798 11.892 41.517 12.0952 41.1989 12.2372C40.8807 12.3821 40.4972 12.4545 40.0483 12.4545ZM53.5046 3.78267C53.4705 3.43892 53.3242 3.17187 53.0657 2.98153C52.8072 2.79119 52.4563 2.69602 52.0131 2.69602C51.712 2.69602 51.4577 2.73864 51.2504 2.82386C51.043 2.90625 50.8839 3.02131 50.7731 3.16903C50.6651 3.31676 50.6112 3.48438 50.6112 3.67188C50.6055 3.82812 50.6381 3.96449 50.7092 4.08097C50.783 4.19744 50.8839 4.2983 51.0117 4.38352C51.1396 4.46591 51.2873 4.53835 51.4549 4.60085C51.6225 4.66051 51.8015 4.71165 51.9918 4.75426L52.7759 4.94176C53.1566 5.02699 53.506 5.14062 53.8242 5.28267C54.1424 5.42472 54.418 5.59943 54.6509 5.80682C54.8839 6.0142 55.0643 6.25852 55.1921 6.53977C55.3228 6.82102 55.3896 7.14347 55.3924 7.5071C55.3896 8.04119 55.2532 8.50426 54.9833 8.89631C54.7163 9.28551 54.3299 9.58807 53.8242 9.80398C53.3214 10.017 52.7148 10.1236 52.0046 10.1236C51.3001 10.1236 50.6864 10.0156 50.1637 9.79972C49.6438 9.58381 49.2376 9.2642 48.945 8.84091C48.6552 8.41477 48.5032 7.88778 48.489 7.25994H50.2745C50.2944 7.55256 50.3782 7.79687 50.5259 7.9929C50.6765 8.18608 50.8768 8.33239 51.1268 8.43182C51.3796 8.52841 51.6651 8.5767 51.9833 8.5767C52.2958 8.5767 52.5671 8.53125 52.7972 8.44034C53.0302 8.34943 53.2106 8.22301 53.3384 8.06108C53.4663 7.89915 53.5302 7.71307 53.5302 7.50284C53.5302 7.30682 53.4719 7.14205 53.3555 7.00852C53.2418 6.875 53.0742 6.76136 52.8526 6.66761C52.6339 6.57386 52.3654 6.48864 52.0472 6.41193L51.0969 6.1733C50.3612 5.99432 49.7802 5.71449 49.354 5.33381C48.9279 4.95312 48.7163 4.44034 48.7191 3.79545C48.7163 3.26705 48.8569 2.8054 49.141 2.41051C49.4279 2.01562 49.8214 1.70739 50.3214 1.4858C50.8214 1.2642 51.3896 1.15341 52.0259 1.15341C52.6737 1.15341 53.239 1.2642 53.7219 1.4858C54.2077 1.70739 54.5856 2.01562 54.8555 2.41051C55.1254 2.8054 55.2646 3.26278 55.2731 3.78267H53.5046ZM58.2443 8.11648L58.2486 5.93892H58.5128L60.6094 3.45455H62.6932L59.8764 6.74432H59.446L58.2443 8.11648ZM56.5994 10V1.27273H58.4148V10H56.5994ZM60.6903 10L58.7642 7.14915L59.9744 5.86648L62.8168 10H60.6903ZM64.81 12.4545C64.5799 12.4545 64.364 12.4361 64.1623 12.3991C63.9634 12.3651 63.7987 12.321 63.668 12.267L64.0771 10.9119C64.2901 10.9773 64.4819 11.0128 64.6523 11.0185C64.8256 11.0241 64.9748 10.9844 65.0998 10.8991C65.2276 10.8139 65.3313 10.669 65.4109 10.4645L65.5174 10.1875L63.1694 3.45455H65.0785L66.4336 8.26136H66.5018L67.8697 3.45455H69.7915L67.2475 10.7074C67.1254 11.0597 66.9592 11.3665 66.7489 11.6278C66.5415 11.892 66.2788 12.0952 65.9606 12.2372C65.6424 12.3821 65.2589 12.4545 64.81 12.4545Z" fill="black"/>
</svg>
