<svg width="63" height="13" viewBox="0 0 63 13" fill="none" xmlns="http://www.w3.org/2000/svg">
<path d="M0.758523 10V1.27273H4.25284C4.89489 1.27273 5.4304 1.3679 5.85938 1.55824C6.28835 1.74858 6.6108 2.01278 6.8267 2.35085C7.04261 2.68608 7.15057 3.07244 7.15057 3.50994C7.15057 3.85085 7.08239 4.15057 6.94602 4.40909C6.80966 4.66477 6.62216 4.875 6.38352 5.03977C6.14773 5.2017 5.87784 5.31676 5.57386 5.38494V5.47017C5.90625 5.48437 6.21733 5.57812 6.5071 5.75142C6.79972 5.92472 7.03693 6.16761 7.21875 6.48011C7.40057 6.78977 7.49148 7.15909 7.49148 7.58807C7.49148 8.05114 7.37642 8.46449 7.14631 8.82812C6.91903 9.18892 6.58239 9.47443 6.13636 9.68466C5.69034 9.89489 5.14063 10 4.48722 10H0.758523ZM2.60369 8.49148H4.10795C4.62216 8.49148 4.99716 8.39347 5.23295 8.19744C5.46875 7.99858 5.58665 7.73437 5.58665 7.40483C5.58665 7.16335 5.52841 6.95028 5.41193 6.76562C5.29545 6.58097 5.12926 6.43608 4.91335 6.33097C4.70028 6.22585 4.44602 6.1733 4.15057 6.1733H2.60369V8.49148ZM2.60369 4.92472H3.97159C4.22443 4.92472 4.44886 4.88068 4.64489 4.79261C4.84375 4.7017 5 4.57386 5.11364 4.40909C5.23011 4.24432 5.28835 4.04688 5.28835 3.81676C5.28835 3.50142 5.17614 3.24716 4.9517 3.05398C4.73011 2.8608 4.41477 2.7642 4.00568 2.7642H2.60369V4.92472ZM8.65803 10V3.45455H10.4734V10H8.65803ZM9.56996 2.6108C9.30007 2.6108 9.06854 2.52131 8.87536 2.34233C8.68501 2.16051 8.58984 1.94318 8.58984 1.69034C8.58984 1.44034 8.68501 1.22585 8.87536 1.04688C9.06854 0.865057 9.30007 0.774147 9.56996 0.774147C9.83984 0.774147 10.07 0.865057 10.2603 1.04688C10.4535 1.22585 10.5501 1.44034 10.5501 1.69034C10.5501 1.94318 10.4535 2.16051 10.2603 2.34233C10.07 2.52131 9.83984 2.6108 9.56996 2.6108ZM13.7429 6.21591V10H11.9276V3.45455H13.6577V4.60938H13.7344C13.8793 4.22869 14.1222 3.92756 14.4631 3.70597C14.804 3.48153 15.2173 3.36932 15.7031 3.36932C16.1577 3.36932 16.554 3.46875 16.892 3.66761C17.2301 3.86648 17.4929 4.15057 17.6804 4.51989C17.8679 4.88636 17.9616 5.32386 17.9616 5.83239V10H16.1463V6.15625C16.1491 5.75568 16.0469 5.44318 15.8395 5.21875C15.6321 4.99148 15.3466 4.87784 14.983 4.87784C14.7386 4.87784 14.5227 4.9304 14.3352 5.03551C14.1506 5.14062 14.0057 5.29403 13.9006 5.49574C13.7983 5.6946 13.7457 5.93466 13.7429 6.21591ZM21.2589 10.1236C20.8413 10.1236 20.4691 10.0511 20.1424 9.90625C19.8157 9.75852 19.5572 9.54119 19.3668 9.25426C19.1793 8.96449 19.0856 8.60369 19.0856 8.17188C19.0856 7.80824 19.1523 7.50284 19.2859 7.25568C19.4194 7.00852 19.6012 6.80966 19.8313 6.65909C20.0614 6.50852 20.3228 6.39489 20.6154 6.31818C20.9109 6.24148 21.2205 6.1875 21.5444 6.15625C21.9251 6.11648 22.2319 6.07955 22.4648 6.04545C22.6978 6.00852 22.8668 5.95455 22.9719 5.88352C23.0771 5.8125 23.1296 5.70739 23.1296 5.56818V5.54261C23.1296 5.27273 23.0444 5.06392 22.8739 4.91619C22.7063 4.76847 22.4677 4.6946 22.158 4.6946C21.8313 4.6946 21.5714 4.76705 21.3782 4.91193C21.185 5.05398 21.0572 5.23295 20.9947 5.44886L19.3157 5.3125C19.4009 4.91477 19.5685 4.57102 19.8185 4.28125C20.0685 3.98864 20.391 3.7642 20.7859 3.60795C21.1836 3.44886 21.6438 3.36932 22.1665 3.36932C22.5302 3.36932 22.8782 3.41193 23.2106 3.49716C23.5458 3.58239 23.8427 3.71449 24.1012 3.89347C24.3626 4.07244 24.5685 4.30256 24.7191 4.58381C24.8697 4.86222 24.945 5.19602 24.945 5.58523V10H23.2234V9.09233H23.1722C23.0671 9.29688 22.9265 9.47727 22.7504 9.63352C22.5742 9.78693 22.3626 9.90767 22.1154 9.99574C21.8683 10.081 21.5827 10.1236 21.2589 10.1236ZM21.7788 8.87074C22.0458 8.87074 22.2816 8.81818 22.4862 8.71307C22.6907 8.60511 22.8512 8.46023 22.9677 8.27841C23.0842 8.09659 23.1424 7.89062 23.1424 7.66051V6.96591C23.0856 7.00284 23.0075 7.03693 22.908 7.06818C22.8114 7.09659 22.7021 7.12358 22.5799 7.14915C22.4577 7.17187 22.3356 7.19318 22.2134 7.21307C22.0913 7.23011 21.9805 7.24574 21.881 7.25994C21.668 7.29119 21.4819 7.34091 21.3228 7.40909C21.1637 7.47727 21.0401 7.5696 20.9521 7.68608C20.864 7.79972 20.82 7.94176 20.82 8.11222C20.82 8.35938 20.9094 8.5483 21.0884 8.67898C21.2702 8.80682 21.5004 8.87074 21.7788 8.87074ZM26.3533 10V3.45455H28.1133V4.59659H28.1815C28.3008 4.19034 28.5011 3.88352 28.7823 3.67614C29.0636 3.46591 29.3874 3.3608 29.7539 3.3608C29.8448 3.3608 29.9428 3.36648 30.0479 3.37784C30.1531 3.3892 30.2454 3.40483 30.3249 3.42472V5.03551C30.2397 5.00994 30.1218 4.98722 29.9712 4.96733C29.8207 4.94744 29.6829 4.9375 29.5579 4.9375C29.2908 4.9375 29.0522 4.99574 28.842 5.11222C28.6346 5.22585 28.4698 5.38494 28.3477 5.58949C28.2283 5.79403 28.1687 6.02983 28.1687 6.29688V10H26.3533ZM32.5835 12.4545C32.3533 12.4545 32.1374 12.4361 31.9357 12.3991C31.7369 12.3651 31.5721 12.321 31.4414 12.267L31.8505 10.9119C32.0636 10.9773 32.2553 11.0128 32.4258 11.0185C32.5991 11.0241 32.7482 10.9844 32.8732 10.8991C33.0011 10.8139 33.1048 10.669 33.1843 10.4645L33.2908 10.1875L30.9428 3.45455H32.8519L34.207 8.26136H34.2752L35.6431 3.45455H37.565L35.021 10.7074C34.8988 11.0597 34.7326 11.3665 34.5224 11.6278C34.315 11.892 34.0522 12.0952 33.734 12.2372C33.4158 12.3821 33.0323 12.4545 32.5835 12.4545ZM46.0398 3.78267C46.0057 3.43892 45.8594 3.17187 45.6009 2.98153C45.3423 2.79119 44.9915 2.69602 44.5483 2.69602C44.2472 2.69602 43.9929 2.73864 43.7855 2.82386C43.5781 2.90625 43.419 3.02131 43.3082 3.16903C43.2003 3.31676 43.1463 3.48438 43.1463 3.67188C43.1406 3.82812 43.1733 3.96449 43.2443 4.08097C43.3182 4.19744 43.419 4.2983 43.5469 4.38352C43.6747 4.46591 43.8224 4.53835 43.9901 4.60085C44.1577 4.66051 44.3366 4.71165 44.527 4.75426L45.3111 4.94176C45.6918 5.02699 46.0412 5.14062 46.3594 5.28267C46.6776 5.42472 46.9531 5.59943 47.1861 5.80682C47.419 6.0142 47.5994 6.25852 47.7273 6.53977C47.858 6.82102 47.9247 7.14347 47.9276 7.5071C47.9247 8.04119 47.7884 8.50426 47.5185 8.89631C47.2514 9.28551 46.8651 9.58807 46.3594 9.80398C45.8565 10.017 45.25 10.1236 44.5398 10.1236C43.8352 10.1236 43.2216 10.0156 42.6989 9.79972C42.179 9.58381 41.7727 9.2642 41.4801 8.84091C41.1903 8.41477 41.0384 7.88778 41.0241 7.25994H42.8097C42.8295 7.55256 42.9134 7.79687 43.0611 7.9929C43.2116 8.18608 43.4119 8.33239 43.6619 8.43182C43.9148 8.52841 44.2003 8.5767 44.5185 8.5767C44.831 8.5767 45.1023 8.53125 45.3324 8.44034C45.5653 8.34943 45.7457 8.22301 45.8736 8.06108C46.0014 7.89915 46.0653 7.71307 46.0653 7.50284C46.0653 7.30682 46.0071 7.14205 45.8906 7.00852C45.777 6.875 45.6094 6.76136 45.3878 6.66761C45.169 6.57386 44.9006 6.48864 44.5824 6.41193L43.6321 6.1733C42.8963 5.99432 42.3153 5.71449 41.8892 5.33381C41.4631 4.95312 41.2514 4.44034 41.2543 3.79545C41.2514 3.26705 41.392 2.8054 41.6761 2.41051C41.9631 2.01562 42.3565 1.70739 42.8565 1.4858C43.3565 1.2642 43.9247 1.15341 44.5611 1.15341C45.2088 1.15341 45.7741 1.2642 46.2571 1.4858C46.7429 1.70739 47.1207 2.01562 47.3906 2.41051C47.6605 2.8054 47.7997 3.26278 47.8082 3.78267H46.0398ZM50.7795 8.11648L50.7837 5.93892H51.0479L53.1445 3.45455H55.2283L52.4116 6.74432H51.9812L50.7795 8.11648ZM49.1346 10V1.27273H50.9499V10H49.1346ZM53.2255 10L51.2994 7.14915L52.5096 5.86648L55.3519 10H53.2255ZM57.3452 12.4545C57.1151 12.4545 56.8991 12.4361 56.6974 12.3991C56.4986 12.3651 56.3338 12.321 56.2031 12.267L56.6122 10.9119C56.8253 10.9773 57.017 11.0128 57.1875 11.0185C57.3608 11.0241 57.5099 10.9844 57.6349 10.8991C57.7628 10.8139 57.8665 10.669 57.946 10.4645L58.0526 10.1875L55.7045 3.45455H57.6136L58.9688 8.26136H59.0369L60.4048 3.45455H62.3267L59.7827 10.7074C59.6605 11.0597 59.4943 11.3665 59.2841 11.6278C59.0767 11.892 58.8139 12.0952 58.4957 12.2372C58.1776 12.3821 57.794 12.4545 57.3452 12.4545Z" fill="black"/>
</svg>
